<svg id="Layer_1" data-name="Layer 1" xmlns="http://www.w3.org/2000/svg" viewBox="0 0 210 182"><defs><style>.cls-1{fill:#fcee21;}</style></defs><title>fair</title><rect class="cls-1" x="76.92" y="26.72" width="52.25" height="8.29"/><rect class="cls-1" x="76.09" y="93.07" width="43.13" height="4.15"/><path class="cls-1" d="M204.12,124.62l4.7-4.69-18.3-18.3a33.2,33.2,0,0,0-12-51.23V32.64L147.3,1.43h-94V80.36a15.76,15.76,0,0,0-2.07-.14,7.05,7.05,0,0,0-7.05,7V107.4a8.91,8.91,0,0,1-5.61,8.26v-6H12.11v51.65H38.55v-4.4a25.72,25.72,0,0,0,14.73,4.92v18.71H178.52V110.85a33,33,0,0,0,7.31-4.53ZM18.69,154.76V116.27H32v0h0v34.57l0,0v3.86ZM183.6,99.4a26.55,26.55,0,1,1,0-37.53A26.57,26.57,0,0,1,183.6,99.4Zm-36.19-92,24.3,24.3h-24.3ZM38.58,148.07v-25.5A15.55,15.55,0,0,0,50.79,107.4V87.27a.42.42,0,0,1,.42-.42A10.38,10.38,0,0,1,61.57,97.22v14.51h22.6a7.16,7.16,0,0,1,6.76,9.51l-8.82,25.37A12.83,12.83,0,0,1,70,155.23H53.75a19.14,19.14,0,0,1-13.44-5.47Zm135.79,28.36H57.43V161.87H70a19.49,19.49,0,0,0,18.39-13.09l.34-1h44.59v-4.14H90.16l3.46-10h62.09v-4.14H95.06l2.14-6.15a14.1,14.1,0,0,0,.73-3.81h57.78v-4.14H97.54a14,14,0,0,0-2.13-4.57,13.63,13.63,0,0,0-11.24-5.8h-16V97.22A17,17,0,0,0,57.43,81.41V5.57h85.84V35.85h31.1v13a33.4,33.4,0,0,0-9.54-1.38,32.88,32.88,0,0,0-20.44,7H76.09v4.14H140a33.37,33.37,0,0,0-5.19,7.88H76.09v4.15H133.2a33.42,33.42,0,0,0-1.51,9.12H76.09V84h55.75a33.19,33.19,0,0,0,42.53,28.45Z"/><path class="cls-1" d="M148.63,64.43A22.92,22.92,0,0,0,142,82.13l4.14-.27a18.76,18.76,0,0,1,32-14.5L181,64.43A22.94,22.94,0,0,0,148.63,64.43Z"/><rect class="cls-1" x="32.09" y="44.65" width="6.63" height="22.37" transform="translate(-21.01 21.36) rotate(-26.19)"/><rect class="cls-1" x="18.35" y="55.07" width="6.64" height="22.38" transform="translate(-42.17 38.24) rotate(-48.19)"/><rect class="cls-1" x="9.51" y="69.89" width="6.63" height="22.37" transform="translate(-67.79 65.67) rotate(-70.19)"/></svg>