<svg id="Layer_1" data-name="Layer 1" xmlns="http://www.w3.org/2000/svg" xmlns:xlink="http://www.w3.org/1999/xlink" viewBox="0 0 54 102"><defs><style>.cls-1{fill:url(#linear-gradient);}.cls-2{fill:url(#linear-gradient-2);}.cls-3{fill:url(#linear-gradient-3);}.cls-4{fill:url(#linear-gradient-4);}.cls-5{opacity:0.3;fill:url(#linear-gradient-5);}</style><linearGradient id="linear-gradient" x1="1" y1="29.99" x2="53" y2="29.99" gradientUnits="userSpaceOnUse"><stop offset="0" stop-color="#fcee21"/><stop offset="1" stop-color="#fbae17"/></linearGradient><linearGradient id="linear-gradient-2" y1="76" y2="76" xlink:href="#linear-gradient"/><linearGradient id="linear-gradient-3" x1="27" y1="76" x2="53" y2="76" gradientUnits="userSpaceOnUse"><stop offset="0" stop-color="#fcba21"/><stop offset="1" stop-color="#fb9d17"/></linearGradient><linearGradient id="linear-gradient-4" y1="29.99" y2="29.99" xlink:href="#linear-gradient-3"/><linearGradient id="linear-gradient-5" x1="1" y1="45.49" x2="53" y2="45.49" gradientUnits="userSpaceOnUse"><stop offset="0" stop-color="#d41700"/><stop offset="1" stop-color="#ffab15"/></linearGradient></defs><title>mm_logo</title><polygon class="cls-1" points="27 58.97 1 43.49 27 1 53 43.49 27 58.97"/><polygon class="cls-2" points="27 65.76 1 50.38 1 90.13 15.88 101.63 15.88 77 27 84.9 38.12 77 38.12 101.63 53 90.13 53 50.38 27 65.76"/><polyline class="cls-3" points="27 65.76 27 84.9 38.12 77 38.12 101.63 53 90.13 53 50.38 27 65.76"/><polyline class="cls-4" points="27 58.97 53 43.49 27 1 27 58.97"/><polygon class="cls-5" points="27 58.97 1 43.49 27 32 53 43.49 27 58.97"/></svg>