<svg id="Layer_1" data-name="Layer 1" xmlns="http://www.w3.org/2000/svg" viewBox="0 0 282 202"><defs><style>.cls-1{fill:#fcee21;}</style></defs><title>random</title><path class="cls-1" d="M233,41.27c3.15,2.66,8.43,3.95,11.59,2.82s2.78-4-.39-6.41-7.82-3.48-10.85-2.62S230,38.71,233,41.27Z"/><path class="cls-1" d="M204.51,43.36c-4.18,1.21-5.51,4.7-2.72,7.91s9.05,4.9,13.37,3.36c4.15-1.49,4.8-5.18,1.74-8.2A13.79,13.79,0,0,0,204.51,43.36Z"/><path class="cls-1" d="M217.05,27.73a13.17,13.17,0,0,0,10.3,2.48c3-.76,3.22-3,.65-5a13.5,13.5,0,0,0-9.71-2.31C215.25,23.56,214.63,25.68,217.05,27.73Z"/><path class="cls-1" d="M198.89,37.41c3.94-1,5-3.76,2.62-6.13s-7.12-3.44-10.93-2.66-5.55,3.44-3.38,5.92S194.8,38.45,198.89,37.41Z"/><path class="cls-1" d="M204.09,16.77c2.06,1.74,6.27,2.74,9.28,2.2s3.45-2.31,1.33-3.93A13.17,13.17,0,0,0,205.91,13C203,13.4,202.1,15.08,204.09,16.77Z"/><path class="cls-1" d="M189.23,19.2c-1.87-1.84-6.18-2.87-9.78-2.34s-5.44,2.56-3.71,4.54,6.53,3.21,10.38,2.51S191.17,21.11,189.23,19.2Z"/><path class="cls-1" d="M159,104.87c-1.19,2.87-.48,7.46,1.63,10.4s5.05,3.26,6.42.39.62-7.91-1.72-10.92S160.27,101.94,159,104.87Z"/><path class="cls-1" d="M162.37,85.82c1.33-3.33.56-8.22-1.7-10.77s-4.89-1.73-6.06,1.55a11.72,11.72,0,0,0,1.61,10.26C158.31,89.46,161.07,89.06,162.37,85.82Z"/><path class="cls-1" d="M157.73,56.38c1.25-3.69.49-8.51-1.68-10.63s-4.7-.67-5.8,2.93-.38,8,1.58,10.13S156.49,60,157.73,56.38Z"/><path class="cls-1" d="M182.94,82.35c1.87-3.92.94-9.6-2-12.48s-6.46-1.78-8.08,2.07a11.92,11.92,0,0,0,1.9,11.79C177.44,86.69,181.13,86.15,182.94,82.35Z"/><path class="cls-1" d="M250.33,74.14c-3.76.12-8,4-9.29,8.57s.72,7.86,4.43,7.56,7.58-4,8.94-8.31S254,74,250.33,74.14Z"/><path class="cls-1" d="M31.93,101.19c4.17.38,10-3.09,12.06-7.21,1.77-3.58-.43-5.66-4.23-5.13a15.73,15.73,0,0,0-9.45,5.75C28,97.77,28.38,100.85,31.93,101.19Z"/><path class="cls-1" d="M61.78,85.22c4.16.38,10-3.08,12.06-7.2,1.77-3.58-.43-5.67-4.23-5.14a15.73,15.73,0,0,0-9.45,5.75C57.82,81.8,58.23,84.89,61.78,85.22Z"/><path class="cls-1" d="M92,69.58c4.16.38,10-3.08,12.06-7.2,1.77-3.58-.43-5.67-4.23-5.14A15.78,15.78,0,0,0,90.38,63C88,66.16,88.45,69.25,92,69.58Z"/><path class="cls-1" d="M58.23,143.08c-4.1,0-5.34,3.45-3.33,7.28a15,15,0,0,0,9.81,7.26c4.17.71,6.8-1.73,5.35-5.88C68.45,147.13,62.84,143,58.23,143.08Z"/><path class="cls-1" d="M121,137.68c-2.22,3.9-2.29,9.65-.14,12.76s5.53,2.34,7.66-1.52,2.17-9.35.16-12.45S123.24,133.83,121,137.68Z"/><path class="cls-1" d="M143.87,121c1.91-3.49,2-8.8.19-12s-4.95-3-7,.5-2.11,9.07-.18,12.24S141.93,124.57,143.87,121Z"/><path class="cls-1" d="M121.67,83.45a13.64,13.64,0,0,0-.15,13c2.13,3.51,5.58,3.37,7.72-.2a13.8,13.8,0,0,0,.17-12.7C127.35,80,123.89,79.91,121.67,83.45Z"/><path class="cls-1" d="M103.84,112c-2.48,4-2.53,10.1-.11,13.6s6.2,3,8.56-1,2.38-9.78.13-13.26S106.29,108,103.84,112Z"/><path class="cls-1" d="M280.1,55.59a1.31,1.31,0,0,0,0-.28,2.56,2.56,0,0,0-.05-.27,1.38,1.38,0,0,0-.08-.27,1.89,1.89,0,0,0-.11-.25c-.05-.08-.1-.17-.16-.25l-.06-.1-.12-.11-.11-.12-60-52.43A2,2,0,0,0,217.75,1l-75,10.47-.14,0-.15,0-.12,0-.27.13a1.09,1.09,0,0,0-.23.14,1.92,1.92,0,0,0-.22.18l-.19.2a1.43,1.43,0,0,0-.16.24l-.13.24a.93.93,0,0,1,0,.1c0,.06,0,.12,0,.19s0,.1-.05.16l-7.16,41-3-7.52c0-.06-.06-.1-.08-.15s0-.11-.07-.16l-.07-.09-.19-.23-.19-.18a2.27,2.27,0,0,0-.25-.18l-.21-.11a1.63,1.63,0,0,0-.31-.11l-.23-.05-.14,0h-.32l-79.5,5.5a2.06,2.06,0,0,0-1.51.82L2.3,112.19a.91.91,0,0,0-.08.13,1.25,1.25,0,0,0-.08.12.61.61,0,0,0-.05.12c0,.09-.08.19-.11.28a2.44,2.44,0,0,0-.06.26,1.42,1.42,0,0,0,0,.29,1.22,1.22,0,0,0,0,.27,2.8,2.8,0,0,0,.06.28,2.76,2.76,0,0,0,.08.27s0,.07,0,.1a.86.86,0,0,0,.1.16,1.19,1.19,0,0,0,.08.16l45.5,64.5a2.07,2.07,0,0,0,1.37.85l73.5,11.5a1.72,1.72,0,0,0,.32,0h.1a1.61,1.61,0,0,0,.44-.06l.18-.07a2.12,2.12,0,0,0,.31-.14l.17-.11.24-.21a1.1,1.1,0,0,0,.15-.16l.09-.09.08-.16c0-.05.07-.09.1-.15l29.82-60.93,16.92,23.29.14.15.09.11.07,0,.12.1a2.2,2.2,0,0,0,.25.17l.14.07.29.11.13,0a2.2,2.2,0,0,0,.44.05h.05a2.66,2.66,0,0,0,.28,0h0l.34-.08,35.42-12.23-3.06,27.21,12.12-5.51v36a2.07,2.07,0,0,0,1.2,1.88,2.08,2.08,0,0,0,2.21-.3l11.57-9.79,10.79,8.68a2.08,2.08,0,0,0,3.37-1.62V162.91l12.13,5.51-3.27-29.14,19.78-21.65-20.9-4.28,24.69-57a.94.94,0,0,0,0-.16,1.22,1.22,0,0,0,.07-.17s0-.07,0-.11A1.43,1.43,0,0,0,280.1,55.59ZM217.39,5.25l56.27,49.16L198.83,72.15l-51.61-57.1Zm-65,119.25h0L122.9,184.82,88.32,117.53,128.55,52l4.18,10.48h0l22.46,56.34ZM50.54,54.93l74.54-5.15L84.83,115.31,8,111.56ZM8.09,115.71l76.56,3.73,6.92,13.47,27.68,53.85L50.64,176Zm151.22,4.13a2,2,0,0,0,.06-1.67l-12.3-30.86A11.44,11.44,0,0,0,145.32,79a3,3,0,0,0-2.11-1.36l-6.42-16.1,7.59-43.44L195.78,75l-8.49,26.26L172.51,147,156.69,125.2Zm84.07,73.62-8.75-7a2.08,2.08,0,0,0-2.64,0l-9.47,8V161L233,156.29,243.38,161Zm4.64-56.9,2.11,18.75L233,147.51l-17.17,7.8,2.11-18.75-12.72-13.92,18.47-3.79,9.31-16.4,9.32,16.4,18.47,3.79Zm-.59-24.81L233,86.24l-14.47,25.51-28.73,5.88,18,19.73-31.31,10.81,23.25-72,74.79-17.73-23.4,54Z"/></svg>