<svg id="Layer_1" data-name="Layer 1" xmlns="http://www.w3.org/2000/svg" viewBox="0 0 276 182"><defs><style>.cls-1{fill:#fcee21;}</style></defs><title>win</title><path class="cls-1" d="M177.11,159.53h2.66v-8.81h-13.1V137.63h3.9v-8.81H153c-7.26-10.16-5.06-24.21-4.19-28.39a12.77,12.77,0,0,0,6.75-8.09,61.33,61.33,0,0,0,40.18-35c9.48-.24,16.66-3.23,21.36-8.89,8.24-9.94,5.65-24.33,5.53-24.93l-.32-1.69H200.66V14.14A6.79,6.79,0,0,0,200.28.57H79.19a6.79,6.79,0,0,0-.39,13.57v7.73H57l-.32,1.7c-.11.6-2.63,15,5.65,24.91,4.71,5.66,11.89,8.64,21.34,8.9a60.84,60.84,0,0,0,27.63,30,60,60,0,0,0,12.61,5,12.71,12.71,0,0,0,6.83,8.14c.85,4.29,2.88,18.34-4.2,28.35H105.43v8.81h3.9v13.09H96.23v8.81h2.66v13.09H89.61v8.81h96.78v-8.81h-9.28ZM218.78,26c.37,3.8.63,13.2-4.87,19.83-3.62,4.37-9.18,6.82-16.54,7.32a60.08,60.08,0,0,0,3.22-16.68c0-1,.07-2,.07-3V26ZM83,33.48V14.22H196.52V33.48c0,.3,0,.6,0,.9H83C83,34.08,83,33.78,83,33.48ZM76.54,7.37a2.65,2.65,0,0,1,2.65-2.65H200.28a2.65,2.65,0,1,1,0,5.3H79.19A2.65,2.65,0,0,1,76.54,7.37Zm-11,38.48c-5.52-6.61-5.33-16-5-19.84H78.8v7.47a61.08,61.08,0,0,0,3.26,19.68C74.72,52.65,69.16,50.2,65.53,45.85Zm62,43.11-1.35-.33a56.75,56.75,0,0,1-43-50.1H196.29a57.08,57.08,0,0,1-43,50.1L152,89l-.21,1.38a8.55,8.55,0,0,1-4.49,6.24h-15a8.52,8.52,0,0,1-4.49-6.25Zm7.66,12.7c.32,0,.64,0,1,0h7.2c.34,0,.68,0,1,0-1,5.75-1.9,17.36,3.72,27.16H131.46C137,119.09,136.08,107.42,135.17,101.66Zm-21.69,36h49v13.09h-49ZM103,159.53H173v13.09H103Z"/><path class="cls-1" d="M226.66,88.25l6.78,28.59L262,123.62l12.68-48Zm32.17,30.05-21.7-5.15L232,91.44l36.48-9.62Z"/><polygon class="cls-1" points="221.07 92.44 214.7 135.58 257.84 129.21 228.28 122 221.07 92.44"/><path class="cls-1" d="M49.34,88.25,1.3,75.58l12.68,48,28.58-6.78ZM17.16,118.3,7.54,81.82,44,91.44l-5.15,21.71Z"/><polygon class="cls-1" points="54.93 92.44 47.72 122 18.16 129.21 61.3 135.58 54.93 92.44"/><rect class="cls-1" x="78.73" y="62.66" width="4.15" height="60.3" transform="matrix(0.83, -0.56, 0.56, 0.83, -38.16, 61.35)"/><rect class="cls-1" x="55.38" y="150.18" width="4.15" height="27.75" transform="translate(-113.85 193.6) rotate(-80.48)"/><rect class="cls-1" x="204.67" y="161.99" width="27.75" height="4.15" transform="translate(-24.11 38.39) rotate(-9.52)"/><rect class="cls-1" x="165.05" y="90.73" width="60.3" height="4.15" transform="translate(8.83 202.27) rotate(-55.86)"/></svg>